solid CATIA STL
  facet normal  0.000000e+000  0.000000e+000  1.000000e+000
    outer loop
      vertex  0.000000e+000  0.000000e+000  2.000000e+002
      vertex  3.000000e+002  0.000000e+000  2.000000e+002
      vertex  0.000000e+000  2.000000e+002  2.000000e+002
    endloop
  endfacet
  facet normal  -0.000000e+000  0.000000e+000  1.000000e+000
    outer loop
      vertex  0.000000e+000  2.000000e+002  2.000000e+002
      vertex  3.000000e+002  0.000000e+000  2.000000e+002
      vertex  3.000000e+002  2.000000e+002  2.000000e+002
    endloop
  endfacet
  facet normal  0.000000e+000  0.000000e+000 -1.000000e+000
    outer loop
      vertex  0.000000e+000  0.000000e+000  0.000000e+000
      vertex  0.000000e+000  2.000000e+002  0.000000e+000
      vertex  3.000000e+002  0.000000e+000  0.000000e+000
    endloop
  endfacet
  facet normal  0.000000e+000  0.000000e+000 -1.000000e+000
    outer loop
      vertex  3.000000e+002  0.000000e+000  0.000000e+000
      vertex  0.000000e+000  2.000000e+002  0.000000e+000
      vertex  3.000000e+002  2.000000e+002  0.000000e+000
    endloop
  endfacet
  facet normal -1.000000e+000  0.000000e+000  0.000000e+000
    outer loop
      vertex  0.000000e+000  2.000000e+002  0.000000e+000
      vertex  0.000000e+000  0.000000e+000  0.000000e+000
      vertex  0.000000e+000  2.000000e+002  2.000000e+002
    endloop
  endfacet
  facet normal -1.000000e+000  -0.000000e+000  0.000000e+000
    outer loop
      vertex  0.000000e+000  2.000000e+002  2.000000e+002
      vertex  0.000000e+000  0.000000e+000  0.000000e+000
      vertex  0.000000e+000  0.000000e+000  2.000000e+002
    endloop
  endfacet
  facet normal  0.000000e+000  1.000000e+000  -0.000000e+000
    outer loop
      vertex  3.000000e+002  2.000000e+002  2.000000e+002
      vertex  3.000000e+002  2.000000e+002  0.000000e+000
      vertex  0.000000e+000  2.000000e+002  2.000000e+002
    endloop
  endfacet
  facet normal  0.000000e+000  1.000000e+000  0.000000e+000
    outer loop
      vertex  0.000000e+000  2.000000e+002  2.000000e+002
      vertex  3.000000e+002  2.000000e+002  0.000000e+000
      vertex  0.000000e+000  2.000000e+002  0.000000e+000
    endloop
  endfacet
  facet normal  1.000000e+000  0.000000e+000  0.000000e+000
    outer loop
      vertex  3.000000e+002  0.000000e+000  0.000000e+000
      vertex  3.000000e+002  2.000000e+002  0.000000e+000
      vertex  3.000000e+002  0.000000e+000  2.000000e+002
    endloop
  endfacet
  facet normal  1.000000e+000  -0.000000e+000  0.000000e+000
    outer loop
      vertex  3.000000e+002  0.000000e+000  2.000000e+002
      vertex  3.000000e+002  2.000000e+002  0.000000e+000
      vertex  3.000000e+002  2.000000e+002  2.000000e+002
    endloop
  endfacet
  facet normal  0.000000e+000 -1.000000e+000  0.000000e+000
    outer loop
      vertex  0.000000e+000  0.000000e+000  2.000000e+002
      vertex  0.000000e+000  0.000000e+000  0.000000e+000
      vertex  3.000000e+002  0.000000e+000  2.000000e+002
    endloop
  endfacet
  facet normal  0.000000e+000 -1.000000e+000  -0.000000e+000
    outer loop
      vertex  3.000000e+002  0.000000e+000  2.000000e+002
      vertex  0.000000e+000  0.000000e+000  0.000000e+000
      vertex  3.000000e+002  0.000000e+000  0.000000e+000
    endloop
  endfacet
  facet normal  0.000000e+000  0.000000e+000  1.000000e+000
    outer loop
      vertex  0.000000e+000  0.000000e+000  1.000000e+002
      vertex  0.000000e+000 -6.000000e+002  1.000000e+002
      vertex  3.000000e+002  0.000000e+000  1.000000e+002
    endloop
  endfacet
  facet normal  0.000000e+000  0.000000e+000  1.000000e+000
    outer loop
      vertex  3.000000e+002  0.000000e+000  1.000000e+002
      vertex  0.000000e+000 -6.000000e+002  1.000000e+002
      vertex  3.000000e+002 -6.000000e+002  1.000000e+002
    endloop
  endfacet
  facet normal  0.000000e+000  0.000000e+000  1.000000e+000
    outer loop
      vertex  0.000000e+000  2.000000e+002  1.000000e+002
      vertex  3.000000e+002  2.000000e+002  1.000000e+002
      vertex  0.000000e+000  8.000000e+002  1.000000e+002
    endloop
  endfacet
  facet normal  -0.000000e+000  0.000000e+000  1.000000e+000
    outer loop
      vertex  0.000000e+000  8.000000e+002  1.000000e+002
      vertex  3.000000e+002  2.000000e+002  1.000000e+002
      vertex  3.000000e+002  8.000000e+002  1.000000e+002
    endloop
  endfacet
endsolid CATIA STL
