solid CATIA STL
  facet normal  0.000000e+000  0.000000e+000 -1.000000e+000
    outer loop
      vertex  1.500000e+003  9.184548e-014  0.000000e+000
      vertex  1.499213e+003 -4.857284e+001  0.000000e+000
      vertex  1.499213e+003  4.857284e+001  0.000000e+000
    endloop
  endfacet
  facet normal  0.000000e+000  0.000000e+000 -9.999999e-001
    outer loop
      vertex  1.499213e+003  4.857284e+001  0.000000e+000
      vertex  1.499213e+003 -4.857284e+001  0.000000e+000
      vertex  1.496854e+003  9.709473e+001  0.000000e+000
    endloop
  endfacet
  facet normal  0.000000e+000  0.000000e+000 -1.000000e+000
    outer loop
      vertex  1.496854e+003  9.709473e+001  0.000000e+000
      vertex  1.499213e+003 -4.857284e+001  0.000000e+000
      vertex  1.496854e+003 -9.709473e+001  0.000000e+000
    endloop
  endfacet
  facet normal  0.000000e+000  0.000000e+000 -1.000000e+000
    outer loop
      vertex  1.496854e+003  9.709473e+001  0.000000e+000
      vertex  1.496854e+003 -9.709473e+001  0.000000e+000
      vertex  1.492925e+003  1.455148e+002  0.000000e+000
    endloop
  endfacet
  facet normal  0.000000e+000  0.000000e+000 -1.000000e+000
    outer loop
      vertex  1.492925e+003  1.455148e+002  0.000000e+000
      vertex  1.496854e+003 -9.709473e+001  0.000000e+000
      vertex  1.492925e+003 -1.455148e+002  0.000000e+000
    endloop
  endfacet
  facet normal  0.000000e+000  0.000000e+000 -1.000000e+000
    outer loop
      vertex  1.492925e+003  1.455148e+002  0.000000e+000
      vertex  1.492925e+003 -1.455148e+002  0.000000e+000
      vertex  1.487430e+003  1.937822e+002  0.000000e+000
    endloop
  endfacet
  facet normal  0.000000e+000  0.000000e+000 -1.000000e+000
    outer loop
      vertex  1.487430e+003  1.937822e+002  0.000000e+000
      vertex  1.492925e+003 -1.455148e+002  0.000000e+000
      vertex  1.487430e+003 -1.937822e+002  0.000000e+000
    endloop
  endfacet
  facet normal  0.000000e+000  0.000000e+000 -1.000000e+000
    outer loop
      vertex  1.487430e+003  1.937822e+002  0.000000e+000
      vertex  1.487430e+003 -1.937822e+002  0.000000e+000
      vertex  1.480375e+003  2.418464e+002  0.000000e+000
    endloop
  endfacet
  facet normal  0.000000e+000  0.000000e+000 -1.000000e+000
    outer loop
      vertex  1.480375e+003  2.418464e+002  0.000000e+000
      vertex  1.487430e+003 -1.937822e+002  0.000000e+000
      vertex  1.480375e+003 -2.418464e+002  0.000000e+000
    endloop
  endfacet
  facet normal  0.000000e+000  0.000000e+000 -1.000000e+000
    outer loop
      vertex  1.480375e+003  2.418464e+002  0.000000e+000
      vertex  1.480375e+003 -2.418464e+002  0.000000e+000
      vertex  1.471767e+003  2.896569e+002  0.000000e+000
    endloop
  endfacet
  facet normal  0.000000e+000  0.000000e+000 -1.000000e+000
    outer loop
      vertex  1.471767e+003  2.896569e+002  0.000000e+000
      vertex  1.480375e+003 -2.418464e+002  0.000000e+000
      vertex  1.471767e+003 -2.896569e+002  0.000000e+000
    endloop
  endfacet
  facet normal  0.000000e+000  0.000000e+000 -1.000000e+000
    outer loop
      vertex  1.471767e+003  2.896569e+002  0.000000e+000
      vertex  1.471767e+003 -2.896569e+002  0.000000e+000
      vertex  1.461616e+003  3.371636e+002  0.000000e+000
    endloop
  endfacet
  facet normal  0.000000e+000  0.000000e+000 -1.000000e+000
    outer loop
      vertex  1.461616e+003  3.371636e+002  0.000000e+000
      vertex  1.471767e+003 -2.896569e+002  0.000000e+000
      vertex  1.461616e+003 -3.371636e+002  0.000000e+000
    endloop
  endfacet
  facet normal  0.000000e+000  0.000000e+000 -1.000000e+000
    outer loop
      vertex  1.461616e+003  3.371636e+002  0.000000e+000
      vertex  1.461616e+003 -3.371636e+002  0.000000e+000
      vertex  1.449931e+003  3.843167e+002  0.000000e+000
    endloop
  endfacet
  facet normal  0.000000e+000  0.000000e+000 -1.000000e+000
    outer loop
      vertex  1.449931e+003  3.843167e+002  0.000000e+000
      vertex  1.461616e+003 -3.371636e+002  0.000000e+000
      vertex  1.449931e+003 -3.843167e+002  0.000000e+000
    endloop
  endfacet
  facet normal  0.000000e+000  0.000000e+000 -1.000000e+000
    outer loop
      vertex  1.449931e+003  3.843167e+002  0.000000e+000
      vertex  1.449931e+003 -3.843167e+002  0.000000e+000
      vertex  1.436726e+003  4.310666e+002  0.000000e+000
    endloop
  endfacet
  facet normal  0.000000e+000  0.000000e+000 -1.000000e+000
    outer loop
      vertex  1.436726e+003  4.310666e+002  0.000000e+000
      vertex  1.449931e+003 -3.843167e+002  0.000000e+000
      vertex  1.436726e+003 -4.310666e+002  0.000000e+000
    endloop
  endfacet
  facet normal  0.000000e+000  0.000000e+000 -1.000000e+000
    outer loop
      vertex  1.436726e+003  4.310666e+002  0.000000e+000
      vertex  1.436726e+003 -4.310666e+002  0.000000e+000
      vertex  1.422014e+003  4.773645e+002  0.000000e+000
    endloop
  endfacet
  facet normal  0.000000e+000  0.000000e+000 -1.000000e+000
    outer loop
      vertex  1.422014e+003  4.773645e+002  0.000000e+000
      vertex  1.436726e+003 -4.310666e+002  0.000000e+000
      vertex  1.422014e+003 -4.773645e+002  0.000000e+000
    endloop
  endfacet
  facet normal  0.000000e+000  0.000000e+000 -1.000000e+000
    outer loop
      vertex  1.422014e+003  4.773645e+002  0.000000e+000
      vertex  1.422014e+003 -4.773645e+002  0.000000e+000
      vertex  1.405810e+003  5.231616e+002  0.000000e+000
    endloop
  endfacet
  facet normal  0.000000e+000  0.000000e+000 -1.000000e+000
    outer loop
      vertex  1.405810e+003  5.231616e+002  0.000000e+000
      vertex  1.422014e+003 -4.773645e+002  0.000000e+000
      vertex  1.405810e+003 -5.231616e+002  0.000000e+000
    endloop
  endfacet
  facet normal  0.000000e+000  0.000000e+000 -1.000000e+000
    outer loop
      vertex  1.405810e+003  5.231616e+002  0.000000e+000
      vertex  1.405810e+003 -5.231616e+002  0.000000e+000
      vertex  1.388132e+003  5.684100e+002  0.000000e+000
    endloop
  endfacet
  facet normal  0.000000e+000  0.000000e+000 -1.000000e+000
    outer loop
      vertex  1.388132e+003  5.684100e+002  0.000000e+000
      vertex  1.405810e+003 -5.231616e+002  0.000000e+000
      vertex  1.388132e+003 -5.684100e+002  0.000000e+000
    endloop
  endfacet
  facet normal  0.000000e+000  0.000000e+000 -1.000000e+000
    outer loop
      vertex  1.388132e+003  5.684100e+002  0.000000e+000
      vertex  1.388132e+003 -5.684100e+002  0.000000e+000
      vertex  1.368998e+003  6.130623e+002  0.000000e+000
    endloop
  endfacet
  facet normal  0.000000e+000  0.000000e+000 -1.000000e+000
    outer loop
      vertex  1.368998e+003  6.130623e+002  0.000000e+000
      vertex  1.388132e+003 -5.684100e+002  0.000000e+000
      vertex  1.368998e+003 -6.130623e+002  0.000000e+000
    endloop
  endfacet
  facet normal  0.000000e+000  0.000000e+000 -9.999999e-001
    outer loop
      vertex  1.368998e+003  6.130623e+002  0.000000e+000
      vertex  1.368998e+003 -6.130623e+002  0.000000e+000
      vertex  1.348428e+003  6.570715e+002  0.000000e+000
    endloop
  endfacet
  facet normal  0.000000e+000  0.000000e+000 -9.999999e-001
    outer loop
      vertex  1.348428e+003  6.570715e+002  0.000000e+000
      vertex  1.368998e+003 -6.130623e+002  0.000000e+000
      vertex  1.348428e+003 -6.570715e+002  0.000000e+000
    endloop
  endfacet
  facet normal  0.000000e+000  0.000000e+000 -1.000000e+000
    outer loop
      vertex  1.348428e+003  6.570715e+002  0.000000e+000
      vertex  1.348428e+003 -6.570715e+002  0.000000e+000
      vertex  1.326443e+003  7.003915e+002  0.000000e+000
    endloop
  endfacet
  facet normal  0.000000e+000  0.000000e+000 -1.000000e+000
    outer loop
      vertex  1.326443e+003  7.003915e+002  0.000000e+000
      vertex  1.348428e+003 -6.570715e+002  0.000000e+000
      vertex  1.326443e+003 -7.003915e+002  0.000000e+000
    endloop
  endfacet
  facet normal  0.000000e+000  0.000000e+000 -9.999999e-001
    outer loop
      vertex  1.326443e+003  7.003915e+002  0.000000e+000
      vertex  1.326443e+003 -7.003915e+002  0.000000e+000
      vertex  1.303068e+003  7.429770e+002  0.000000e+000
    endloop
  endfacet
  facet normal  0.000000e+000  0.000000e+000 -1.000000e+000
    outer loop
      vertex  1.303068e+003  7.429770e+002  0.000000e+000
      vertex  1.326443e+003 -7.003915e+002  0.000000e+000
      vertex  1.303068e+003 -7.429770e+002  0.000000e+000
    endloop
  endfacet
  facet normal  0.000000e+000  0.000000e+000 -1.000000e+000
    outer loop
      vertex  1.303068e+003  7.429770e+002  0.000000e+000
      vertex  1.303068e+003 -7.429770e+002  0.000000e+000
      vertex  1.278325e+003  7.847831e+002  0.000000e+000
    endloop
  endfacet
  facet normal  0.000000e+000  0.000000e+000 -1.000000e+000
    outer loop
      vertex  1.278325e+003  7.847831e+002  0.000000e+000
      vertex  1.303068e+003 -7.429770e+002  0.000000e+000
      vertex  1.278325e+003 -7.847831e+002  0.000000e+000
    endloop
  endfacet
  facet normal  0.000000e+000  0.000000e+000 -1.000000e+000
    outer loop
      vertex  1.278325e+003  7.847831e+002  0.000000e+000
      vertex  1.278325e+003 -7.847831e+002  0.000000e+000
      vertex  1.252242e+003  8.257662e+002  0.000000e+000
    endloop
  endfacet
  facet normal  0.000000e+000  0.000000e+000 -9.999999e-001
    outer loop
      vertex  1.252242e+003  8.257662e+002  0.000000e+000
      vertex  1.278325e+003 -7.847831e+002  0.000000e+000
      vertex  1.252242e+003 -8.257662e+002  0.000000e+000
    endloop
  endfacet
  facet normal  0.000000e+000  0.000000e+000 -1.000000e+000
    outer loop
      vertex  1.252242e+003  8.257662e+002  0.000000e+000
      vertex  1.252242e+003 -8.257662e+002  0.000000e+000
      vertex  1.224845e+003  8.658831e+002  0.000000e+000
    endloop
  endfacet
  facet normal  0.000000e+000  0.000000e+000 -1.000000e+000
    outer loop
      vertex  1.224845e+003  8.658831e+002  0.000000e+000
      vertex  1.252242e+003 -8.257662e+002  0.000000e+000
      vertex  1.224845e+003 -8.658831e+002  0.000000e+000
    endloop
  endfacet
  facet normal  0.000000e+000  0.000000e+000 -1.000000e+000
    outer loop
      vertex  1.224845e+003  8.658831e+002  0.000000e+000
      vertex  1.224845e+003 -8.658831e+002  0.000000e+000
      vertex  1.196164e+003  9.050918e+002  0.000000e+000
    endloop
  endfacet
  facet normal  0.000000e+000  0.000000e+000 -9.999999e-001
    outer loop
      vertex  1.196164e+003  9.050918e+002  0.000000e+000
      vertex  1.224845e+003 -8.658831e+002  0.000000e+000
      vertex  1.196164e+003 -9.050918e+002  0.000000e+000
    endloop
  endfacet
  facet normal  0.000000e+000  0.000000e+000 -1.000000e+000
    outer loop
      vertex  1.196164e+003  9.050918e+002  0.000000e+000
      vertex  1.196164e+003 -9.050918e+002  0.000000e+000
      vertex  1.166228e+003  9.433512e+002  0.000000e+000
    endloop
  endfacet
  facet normal  0.000000e+000  0.000000e+000 -9.999999e-001
    outer loop
      vertex  1.166228e+003  9.433512e+002  0.000000e+000
      vertex  1.196164e+003 -9.050918e+002  0.000000e+000
      vertex  1.166228e+003 -9.433512e+002  0.000000e+000
    endloop
  endfacet
  facet normal  0.000000e+000  0.000000e+000 -1.000000e+000
    outer loop
      vertex  1.166228e+003  9.433512e+002  0.000000e+000
      vertex  1.166228e+003 -9.433512e+002  0.000000e+000
      vertex  1.135069e+003  9.806212e+002  0.000000e+000
    endloop
  endfacet
  facet normal  0.000000e+000  0.000000e+000 -1.000000e+000
    outer loop
      vertex  1.135069e+003  9.806212e+002  0.000000e+000
      vertex  1.166228e+003 -9.433512e+002  0.000000e+000
      vertex  1.135069e+003 -9.806212e+002  0.000000e+000
    endloop
  endfacet
  facet normal  0.000000e+000  0.000000e+000 -9.999999e-001
    outer loop
      vertex  1.135069e+003  9.806212e+002  0.000000e+000
      vertex  1.135069e+003 -9.806212e+002  0.000000e+000
      vertex  1.102720e+003  1.016863e+003  0.000000e+000
    endloop
  endfacet
  facet normal  0.000000e+000  0.000000e+000 -1.000000e+000
    outer loop
      vertex  1.102720e+003  1.016863e+003  0.000000e+000
      vertex  1.135069e+003 -9.806212e+002  0.000000e+000
      vertex  1.102720e+003 -1.016863e+003  0.000000e+000
    endloop
  endfacet
  facet normal  0.000000e+000  0.000000e+000 -1.000000e+000
    outer loop
      vertex  1.102720e+003  1.016863e+003  0.000000e+000
      vertex  1.102720e+003 -1.016863e+003  0.000000e+000
      vertex  1.069213e+003  1.052037e+003  0.000000e+000
    endloop
  endfacet
  facet normal  0.000000e+000  0.000000e+000 -1.000000e+000
    outer loop
      vertex  1.069213e+003  1.052037e+003  0.000000e+000
      vertex  1.102720e+003 -1.016863e+003  0.000000e+000
      vertex  1.069213e+003 -1.052037e+003  0.000000e+000
    endloop
  endfacet
  facet normal  0.000000e+000  0.000000e+000 -1.000000e+000
    outer loop
      vertex  1.069213e+003  1.052037e+003  0.000000e+000
      vertex  1.069213e+003 -1.052037e+003  0.000000e+000
      vertex  1.034586e+003  1.086109e+003  0.000000e+000
    endloop
  endfacet
  facet normal  0.000000e+000  0.000000e+000 -1.000000e+000
    outer loop
      vertex  1.034586e+003  1.086109e+003  0.000000e+000
      vertex  1.069213e+003 -1.052037e+003  0.000000e+000
      vertex  1.034586e+003 -1.086109e+003  0.000000e+000
    endloop
  endfacet
  facet normal  0.000000e+000  0.000000e+000 -1.000000e+000
    outer loop
      vertex  1.034586e+003  1.086109e+003  0.000000e+000
      vertex  1.034586e+003 -1.086109e+003  0.000000e+000
      vertex  9.988729e+002  1.119041e+003  0.000000e+000
    endloop
  endfacet
  facet normal  0.000000e+000  0.000000e+000 -1.000000e+000
    outer loop
      vertex  9.988729e+002  1.119041e+003  0.000000e+000
      vertex  1.034586e+003 -1.086109e+003  0.000000e+000
      vertex  9.988729e+002 -1.119041e+003  0.000000e+000
    endloop
  endfacet
  facet normal  0.000000e+000  0.000000e+000 -1.000000e+000
    outer loop
      vertex  9.988729e+002  1.119041e+003  0.000000e+000
      vertex  9.988729e+002 -1.119041e+003  0.000000e+000
      vertex  9.621123e+002  1.150800e+003  0.000000e+000
    endloop
  endfacet
  facet normal  0.000000e+000  0.000000e+000 -9.999999e-001
    outer loop
      vertex  9.621123e+002  1.150800e+003  0.000000e+000
      vertex  9.988729e+002 -1.119041e+003  0.000000e+000
      vertex  9.621123e+002 -1.150800e+003  0.000000e+000
    endloop
  endfacet
  facet normal  0.000000e+000  0.000000e+000 -1.000000e+000
    outer loop
      vertex  9.621123e+002  1.150800e+003  0.000000e+000
      vertex  9.621123e+002 -1.150800e+003  0.000000e+000
      vertex  9.243427e+002  1.181351e+003  0.000000e+000
    endloop
  endfacet
  facet normal  0.000000e+000  0.000000e+000 -1.000000e+000
    outer loop
      vertex  9.243427e+002  1.181351e+003  0.000000e+000
      vertex  9.621123e+002 -1.150800e+003  0.000000e+000
      vertex  9.243427e+002 -1.181351e+003  0.000000e+000
    endloop
  endfacet
  facet normal  0.000000e+000  0.000000e+000 -1.000000e+000
    outer loop
      vertex  9.243427e+002  1.181351e+003  0.000000e+000
      vertex  9.243427e+002 -1.181351e+003  0.000000e+000
      vertex  8.856036e+002  1.210664e+003  0.000000e+000
    endloop
  endfacet
  facet normal  0.000000e+000  0.000000e+000 -1.000000e+000
    outer loop
      vertex  8.856036e+002  1.210664e+003  0.000000e+000
      vertex  9.243427e+002 -1.181351e+003  0.000000e+000
      vertex  8.856036e+002 -1.210664e+003  0.000000e+000
    endloop
  endfacet
  facet normal  0.000000e+000  0.000000e+000 -1.000000e+000
    outer loop
      vertex  8.856036e+002  1.210664e+003  0.000000e+000
      vertex  8.856036e+002 -1.210664e+003  0.000000e+000
      vertex  8.459355e+002  1.238706e+003  0.000000e+000
    endloop
  endfacet
  facet normal  0.000000e+000  0.000000e+000 -1.000000e+000
    outer loop
      vertex  8.459355e+002  1.238706e+003  0.000000e+000
      vertex  8.856036e+002 -1.210664e+003  0.000000e+000
      vertex  8.459355e+002 -1.238706e+003  0.000000e+000
    endloop
  endfacet
  facet normal  0.000000e+000  0.000000e+000 -1.000000e+000
    outer loop
      vertex  8.459355e+002  1.238706e+003  0.000000e+000
      vertex  8.459355e+002 -1.238706e+003  0.000000e+000
      vertex  8.053802e+002  1.265450e+003  0.000000e+000
    endloop
  endfacet
  facet normal  0.000000e+000  0.000000e+000 -1.000000e+000
    outer loop
      vertex  8.053802e+002  1.265450e+003  0.000000e+000
      vertex  8.459355e+002 -1.238706e+003  0.000000e+000
      vertex  8.053802e+002 -1.265450e+003  0.000000e+000
    endloop
  endfacet
  facet normal  0.000000e+000  0.000000e+000 -1.000000e+000
    outer loop
      vertex  8.053802e+002  1.265450e+003  0.000000e+000
      vertex  8.053802e+002 -1.265450e+003  0.000000e+000
      vertex  7.639802e+002  1.290866e+003  0.000000e+000
    endloop
  endfacet
  facet normal  0.000000e+000  0.000000e+000 -1.000000e+000
    outer loop
      vertex  7.639802e+002  1.290866e+003  0.000000e+000
      vertex  8.053802e+002 -1.265450e+003  0.000000e+000
      vertex  7.639802e+002 -1.290866e+003  0.000000e+000
    endloop
  endfacet
  facet normal  0.000000e+000  0.000000e+000 -1.000000e+000
    outer loop
      vertex  7.639802e+002  1.290866e+003  0.000000e+000
      vertex  7.639802e+002 -1.290866e+003  0.000000e+000
      vertex  7.217789e+002  1.314928e+003  0.000000e+000
    endloop
  endfacet
  facet normal  0.000000e+000  0.000000e+000 -1.000000e+000
    outer loop
      vertex  7.217789e+002  1.314928e+003  0.000000e+000
      vertex  7.639802e+002 -1.290866e+003  0.000000e+000
      vertex  7.217789e+002 -1.314928e+003  0.000000e+000
    endloop
  endfacet
  facet normal  0.000000e+000  0.000000e+000 -9.999999e-001
    outer loop
      vertex  7.217789e+002  1.314928e+003  0.000000e+000
      vertex  7.217789e+002 -1.314928e+003  0.000000e+000
      vertex  6.788206e+002  1.337611e+003  0.000000e+000
    endloop
  endfacet
  facet normal  0.000000e+000  0.000000e+000 -9.999999e-001
    outer loop
      vertex  6.788206e+002  1.337611e+003  0.000000e+000
      vertex  7.217789e+002 -1.314928e+003  0.000000e+000
      vertex  6.788206e+002 -1.337611e+003  0.000000e+000
    endloop
  endfacet
  facet normal  0.000000e+000  0.000000e+000 -9.999999e-001
    outer loop
      vertex  6.788206e+002  1.337611e+003  0.000000e+000
      vertex  6.788206e+002 -1.337611e+003  0.000000e+000
      vertex  6.351502e+002  1.358891e+003  0.000000e+000
    endloop
  endfacet
  facet normal  0.000000e+000  0.000000e+000 -1.000000e+000
    outer loop
      vertex  6.351502e+002  1.358891e+003  0.000000e+000
      vertex  6.788206e+002 -1.337611e+003  0.000000e+000
      vertex  6.351502e+002 -1.358891e+003  0.000000e+000
    endloop
  endfacet
  facet normal  0.000000e+000  0.000000e+000 -1.000000e+000
    outer loop
      vertex  6.351502e+002  1.358891e+003  0.000000e+000
      vertex  6.351502e+002 -1.358891e+003  0.000000e+000
      vertex  5.908137e+002  1.378745e+003  0.000000e+000
    endloop
  endfacet
  facet normal  0.000000e+000  0.000000e+000 -1.000000e+000
    outer loop
      vertex  5.908137e+002  1.378745e+003  0.000000e+000
      vertex  6.351502e+002 -1.358891e+003  0.000000e+000
      vertex  5.908137e+002 -1.378745e+003  0.000000e+000
    endloop
  endfacet
  facet normal  0.000000e+000  0.000000e+000 -1.000000e+000
    outer loop
      vertex  5.908137e+002  1.378745e+003  0.000000e+000
      vertex  5.908137e+002 -1.378745e+003  0.000000e+000
      vertex  5.458574e+002  1.397154e+003  0.000000e+000
    endloop
  endfacet
  facet normal  0.000000e+000  0.000000e+000 -1.000000e+000
    outer loop
      vertex  5.458574e+002  1.397154e+003  0.000000e+000
      vertex  5.908137e+002 -1.378745e+003  0.000000e+000
      vertex  5.458574e+002 -1.397154e+003  0.000000e+000
    endloop
  endfacet
  facet normal  0.000000e+000  0.000000e+000 -1.000000e+000
    outer loop
      vertex  5.458574e+002  1.397154e+003  0.000000e+000
      vertex  5.458574e+002 -1.397154e+003  0.000000e+000
      vertex  5.003286e+002  1.414097e+003  0.000000e+000
    endloop
  endfacet
  facet normal  0.000000e+000  0.000000e+000 -1.000000e+000
    outer loop
      vertex  5.003286e+002  1.414097e+003  0.000000e+000
      vertex  5.458574e+002 -1.397154e+003  0.000000e+000
      vertex  5.003286e+002 -1.414097e+003  0.000000e+000
    endloop
  endfacet
  facet normal  0.000000e+000  0.000000e+000 -1.000000e+000
    outer loop
      vertex  5.003286e+002  1.414097e+003  0.000000e+000
      vertex  5.003286e+002 -1.414097e+003  0.000000e+000
      vertex  4.542751e+002  1.429557e+003  0.000000e+000
    endloop
  endfacet
  facet normal  0.000000e+000  0.000000e+000 -1.000000e+000
    outer loop
      vertex  4.542751e+002  1.429557e+003  0.000000e+000
      vertex  5.003286e+002 -1.414097e+003  0.000000e+000
      vertex  4.542751e+002 -1.429557e+003  0.000000e+000
    endloop
  endfacet
  facet normal  0.000000e+000  0.000000e+000 -1.000000e+000
    outer loop
      vertex  4.542751e+002  1.429557e+003  0.000000e+000
      vertex  4.542751e+002 -1.429557e+003  0.000000e+000
      vertex  4.077451e+002  1.443518e+003  0.000000e+000
    endloop
  endfacet
  facet normal  0.000000e+000  0.000000e+000 -1.000000e+000
    outer loop
      vertex  4.077451e+002  1.443518e+003  0.000000e+000
      vertex  4.542751e+002 -1.429557e+003  0.000000e+000
      vertex  4.077451e+002 -1.443518e+003  0.000000e+000
    endloop
  endfacet
  facet normal  0.000000e+000  0.000000e+000 -1.000000e+000
    outer loop
      vertex  4.077451e+002  1.443518e+003  0.000000e+000
      vertex  4.077451e+002 -1.443518e+003  0.000000e+000
      vertex  3.607874e+002  1.455964e+003  0.000000e+000
    endloop
  endfacet
  facet normal  0.000000e+000  0.000000e+000 -1.000000e+000
    outer loop
      vertex  3.607874e+002  1.455964e+003  0.000000e+000
      vertex  4.077451e+002 -1.443518e+003  0.000000e+000
      vertex  3.607874e+002 -1.455964e+003  0.000000e+000
    endloop
  endfacet
  facet normal  0.000000e+000  0.000000e+000 -1.000000e+000
    outer loop
      vertex  3.607874e+002  1.455964e+003  0.000000e+000
      vertex  3.607874e+002 -1.455964e+003  0.000000e+000
      vertex  3.134514e+002  1.466884e+003  0.000000e+000
    endloop
  endfacet
  facet normal  0.000000e+000  0.000000e+000 -1.000000e+000
    outer loop
      vertex  3.134514e+002  1.466884e+003  0.000000e+000
      vertex  3.607874e+002 -1.455964e+003  0.000000e+000
      vertex  3.134514e+002 -1.466884e+003  0.000000e+000
    endloop
  endfacet
  facet normal  0.000000e+000  0.000000e+000 -1.000000e+000
    outer loop
      vertex  3.134514e+002  1.466884e+003  0.000000e+000
      vertex  3.134514e+002 -1.466884e+003  0.000000e+000
      vertex  2.657865e+002  1.476265e+003  0.000000e+000
    endloop
  endfacet
  facet normal  0.000000e+000  0.000000e+000 -9.999999e-001
    outer loop
      vertex  2.657865e+002  1.476265e+003  0.000000e+000
      vertex  3.134514e+002 -1.466884e+003  0.000000e+000
      vertex  2.657865e+002 -1.476265e+003  0.000000e+000
    endloop
  endfacet
  facet normal  0.000000e+000  0.000000e+000 -1.000000e+000
    outer loop
      vertex  2.657865e+002  1.476265e+003  0.000000e+000
      vertex  2.657865e+002 -1.476265e+003  0.000000e+000
      vertex  2.178428e+002  1.484097e+003  0.000000e+000
    endloop
  endfacet
  facet normal  0.000000e+000  0.000000e+000 -1.000000e+000
    outer loop
      vertex  2.178428e+002  1.484097e+003  0.000000e+000
      vertex  2.657865e+002 -1.476265e+003  0.000000e+000
      vertex  2.178428e+002 -1.484097e+003  0.000000e+000
    endloop
  endfacet
  facet normal  0.000000e+000  0.000000e+000 -1.000000e+000
    outer loop
      vertex  2.178428e+002  1.484097e+003  0.000000e+000
      vertex  2.178428e+002 -1.484097e+003  0.000000e+000
      vertex  1.696707e+002  1.490373e+003  0.000000e+000
    endloop
  endfacet
  facet normal  0.000000e+000  0.000000e+000 -1.000000e+000
    outer loop
      vertex  1.696707e+002  1.490373e+003  0.000000e+000
      vertex  2.178428e+002 -1.484097e+003  0.000000e+000
      vertex  1.696707e+002 -1.490373e+003  0.000000e+000
    endloop
  endfacet
  facet normal  0.000000e+000  0.000000e+000 -1.000000e+000
    outer loop
      vertex  1.696707e+002  1.490373e+003  0.000000e+000
      vertex  1.696707e+002 -1.490373e+003  0.000000e+000
      vertex  1.213207e+002  1.495086e+003  0.000000e+000
    endloop
  endfacet
  facet normal  0.000000e+000  0.000000e+000 -1.000000e+000
    outer loop
      vertex  1.213207e+002  1.495086e+003  0.000000e+000
      vertex  1.696707e+002 -1.490373e+003  0.000000e+000
      vertex  1.213207e+002 -1.495086e+003  0.000000e+000
    endloop
  endfacet
  facet normal  0.000000e+000  0.000000e+000 -1.000000e+000
    outer loop
      vertex  1.213207e+002  1.495086e+003  0.000000e+000
      vertex  1.213207e+002 -1.495086e+003  0.000000e+000
      vertex  7.284333e+001  1.498230e+003  0.000000e+000
    endloop
  endfacet
  facet normal  0.000000e+000  0.000000e+000 -1.000000e+000
    outer loop
      vertex  7.284333e+001  1.498230e+003  0.000000e+000
      vertex  1.213207e+002 -1.495086e+003  0.000000e+000
      vertex  7.284333e+001 -1.498230e+003  0.000000e+000
    endloop
  endfacet
  facet normal  0.000000e+000  0.000000e+000 -1.000000e+000
    outer loop
      vertex  7.284333e+001  1.498230e+003  0.000000e+000
      vertex  7.284333e+001 -1.498230e+003  0.000000e+000
      vertex  2.428960e+001  1.499803e+003  0.000000e+000
    endloop
  endfacet
  facet normal  0.000000e+000  0.000000e+000 -1.000000e+000
    outer loop
      vertex  2.428960e+001  1.499803e+003  0.000000e+000
      vertex  7.284333e+001 -1.498230e+003  0.000000e+000
      vertex  2.428960e+001 -1.499803e+003  0.000000e+000
    endloop
  endfacet
  facet normal  0.000000e+000  0.000000e+000 -1.000000e+000
    outer loop
      vertex  2.428960e+001  1.499803e+003  0.000000e+000
      vertex  2.428960e+001 -1.499803e+003  0.000000e+000
      vertex -2.428960e+001  1.499803e+003  0.000000e+000
    endloop
  endfacet
  facet normal  0.000000e+000  0.000000e+000 -1.000000e+000
    outer loop
      vertex -2.428960e+001  1.499803e+003  0.000000e+000
      vertex  2.428960e+001 -1.499803e+003  0.000000e+000
      vertex -2.428960e+001 -1.499803e+003  0.000000e+000
    endloop
  endfacet
  facet normal  0.000000e+000  0.000000e+000 -1.000000e+000
    outer loop
      vertex -2.428960e+001  1.499803e+003  0.000000e+000
      vertex -2.428960e+001 -1.499803e+003  0.000000e+000
      vertex -7.284333e+001  1.498230e+003  0.000000e+000
    endloop
  endfacet
  facet normal  0.000000e+000  0.000000e+000 -1.000000e+000
    outer loop
      vertex -7.284333e+001  1.498230e+003  0.000000e+000
      vertex -2.428960e+001 -1.499803e+003  0.000000e+000
      vertex -7.284333e+001 -1.498230e+003  0.000000e+000
    endloop
  endfacet
  facet normal  0.000000e+000  0.000000e+000 -1.000000e+000
    outer loop
      vertex -7.284333e+001  1.498230e+003  0.000000e+000
      vertex -7.284333e+001 -1.498230e+003  0.000000e+000
      vertex -1.213207e+002  1.495086e+003  0.000000e+000
    endloop
  endfacet
  facet normal  0.000000e+000  0.000000e+000 -1.000000e+000
    outer loop
      vertex -1.213207e+002  1.495086e+003  0.000000e+000
      vertex -7.284333e+001 -1.498230e+003  0.000000e+000
      vertex -1.213207e+002 -1.495086e+003  0.000000e+000
    endloop
  endfacet
  facet normal  0.000000e+000  0.000000e+000 -1.000000e+000
    outer loop
      vertex -1.213207e+002  1.495086e+003  0.000000e+000
      vertex -1.213207e+002 -1.495086e+003  0.000000e+000
      vertex -1.696707e+002  1.490373e+003  0.000000e+000
    endloop
  endfacet
  facet normal  0.000000e+000  0.000000e+000 -1.000000e+000
    outer loop
      vertex -1.696707e+002  1.490373e+003  0.000000e+000
      vertex -1.213207e+002 -1.495086e+003  0.000000e+000
      vertex -1.696707e+002 -1.490373e+003  0.000000e+000
    endloop
  endfacet
  facet normal  0.000000e+000  0.000000e+000 -1.000000e+000
    outer loop
      vertex -1.696707e+002  1.490373e+003  0.000000e+000
      vertex -1.696707e+002 -1.490373e+003  0.000000e+000
      vertex -2.178428e+002  1.484097e+003  0.000000e+000
    endloop
  endfacet
  facet normal  0.000000e+000  0.000000e+000 -1.000000e+000
    outer loop
      vertex -2.178428e+002  1.484097e+003  0.000000e+000
      vertex -1.696707e+002 -1.490373e+003  0.000000e+000
      vertex -2.178428e+002 -1.484097e+003  0.000000e+000
    endloop
  endfacet
  facet normal  0.000000e+000  0.000000e+000 -1.000000e+000
    outer loop
      vertex -2.178428e+002  1.484097e+003  0.000000e+000
      vertex -2.178428e+002 -1.484097e+003  0.000000e+000
      vertex -2.657865e+002  1.476265e+003  0.000000e+000
    endloop
  endfacet
  facet normal  0.000000e+000  0.000000e+000 -1.000000e+000
    outer loop
      vertex -2.657865e+002  1.476265e+003  0.000000e+000
      vertex -2.178428e+002 -1.484097e+003  0.000000e+000
      vertex -2.657865e+002 -1.476265e+003  0.000000e+000
    endloop
  endfacet
  facet normal  0.000000e+000  0.000000e+000 -9.999999e-001
    outer loop
      vertex -2.657865e+002  1.476265e+003  0.000000e+000
      vertex -2.657865e+002 -1.476265e+003  0.000000e+000
      vertex -3.134514e+002  1.466884e+003  0.000000e+000
    endloop
  endfacet
  facet normal  0.000000e+000  0.000000e+000 -1.000000e+000
    outer loop
      vertex -3.134514e+002  1.466884e+003  0.000000e+000
      vertex -2.657865e+002 -1.476265e+003  0.000000e+000
      vertex -3.134514e+002 -1.466884e+003  0.000000e+000
    endloop
  endfacet
  facet normal  0.000000e+000  0.000000e+000 -1.000000e+000
    outer loop
      vertex -3.134514e+002  1.466884e+003  0.000000e+000
      vertex -3.134514e+002 -1.466884e+003  0.000000e+000
      vertex -3.607874e+002  1.455964e+003  0.000000e+000
    endloop
  endfacet
  facet normal  0.000000e+000  0.000000e+000 -1.000000e+000
    outer loop
      vertex -3.607874e+002  1.455964e+003  0.000000e+000
      vertex -3.134514e+002 -1.466884e+003  0.000000e+000
      vertex -3.607874e+002 -1.455964e+003  0.000000e+000
    endloop
  endfacet
  facet normal  0.000000e+000  0.000000e+000 -1.000000e+000
    outer loop
      vertex -3.607874e+002  1.455964e+003  0.000000e+000
      vertex -3.607874e+002 -1.455964e+003  0.000000e+000
      vertex -4.077451e+002  1.443518e+003  0.000000e+000
    endloop
  endfacet
  facet normal  0.000000e+000  0.000000e+000 -1.000000e+000
    outer loop
      vertex -4.077451e+002  1.443518e+003  0.000000e+000
      vertex -3.607874e+002 -1.455964e+003  0.000000e+000
      vertex -4.077451e+002 -1.443518e+003  0.000000e+000
    endloop
  endfacet
  facet normal  0.000000e+000  0.000000e+000 -1.000000e+000
    outer loop
      vertex -4.077451e+002  1.443518e+003  0.000000e+000
      vertex -4.077451e+002 -1.443518e+003  0.000000e+000
      vertex -4.542751e+002  1.429557e+003  0.000000e+000
    endloop
  endfacet
  facet normal  0.000000e+000  0.000000e+000 -1.000000e+000
    outer loop
      vertex -4.542751e+002  1.429557e+003  0.000000e+000
      vertex -4.077451e+002 -1.443518e+003  0.000000e+000
      vertex -4.542751e+002 -1.429557e+003  0.000000e+000
    endloop
  endfacet
  facet normal  0.000000e+000  0.000000e+000 -1.000000e+000
    outer loop
      vertex -4.542751e+002  1.429557e+003  0.000000e+000
      vertex -4.542751e+002 -1.429557e+003  0.000000e+000
      vertex -5.003286e+002  1.414097e+003  0.000000e+000
    endloop
  endfacet
  facet normal  0.000000e+000  0.000000e+000 -1.000000e+000
    outer loop
      vertex -5.003286e+002  1.414097e+003  0.000000e+000
      vertex -4.542751e+002 -1.429557e+003  0.000000e+000
      vertex -5.003286e+002 -1.414097e+003  0.000000e+000
    endloop
  endfacet
  facet normal  0.000000e+000  0.000000e+000 -1.000000e+000
    outer loop
      vertex -5.003286e+002  1.414097e+003  0.000000e+000
      vertex -5.003286e+002 -1.414097e+003  0.000000e+000
      vertex -5.458574e+002  1.397154e+003  0.000000e+000
    endloop
  endfacet
  facet normal  0.000000e+000  0.000000e+000 -1.000000e+000
    outer loop
      vertex -5.458574e+002  1.397154e+003  0.000000e+000
      vertex -5.003286e+002 -1.414097e+003  0.000000e+000
      vertex -5.458574e+002 -1.397154e+003  0.000000e+000
    endloop
  endfacet
  facet normal  0.000000e+000  0.000000e+000 -1.000000e+000
    outer loop
      vertex -5.458574e+002  1.397154e+003  0.000000e+000
      vertex -5.458574e+002 -1.397154e+003  0.000000e+000
      vertex -5.908137e+002  1.378745e+003  0.000000e+000
    endloop
  endfacet
  facet normal  0.000000e+000  0.000000e+000 -1.000000e+000
    outer loop
      vertex -5.908137e+002  1.378745e+003  0.000000e+000
      vertex -5.458574e+002 -1.397154e+003  0.000000e+000
      vertex -5.908137e+002 -1.378745e+003  0.000000e+000
    endloop
  endfacet
  facet normal  0.000000e+000  0.000000e+000 -1.000000e+000
    outer loop
      vertex -5.908137e+002  1.378745e+003  0.000000e+000
      vertex -5.908137e+002 -1.378745e+003  0.000000e+000
      vertex -6.351502e+002  1.358891e+003  0.000000e+000
    endloop
  endfacet
  facet normal  0.000000e+000  0.000000e+000 -1.000000e+000
    outer loop
      vertex -6.351502e+002  1.358891e+003  0.000000e+000
      vertex -5.908137e+002 -1.378745e+003  0.000000e+000
      vertex -6.351502e+002 -1.358891e+003  0.000000e+000
    endloop
  endfacet
  facet normal  0.000000e+000  0.000000e+000 -1.000000e+000
    outer loop
      vertex -6.351502e+002  1.358891e+003  0.000000e+000
      vertex -6.351502e+002 -1.358891e+003  0.000000e+000
      vertex -6.788206e+002  1.337611e+003  0.000000e+000
    endloop
  endfacet
  facet normal  0.000000e+000  0.000000e+000 -9.999999e-001
    outer loop
      vertex -6.788206e+002  1.337611e+003  0.000000e+000
      vertex -6.351502e+002 -1.358891e+003  0.000000e+000
      vertex -6.788206e+002 -1.337611e+003  0.000000e+000
    endloop
  endfacet
  facet normal  0.000000e+000  0.000000e+000 -9.999999e-001
    outer loop
      vertex -6.788206e+002  1.337611e+003  0.000000e+000
      vertex -6.788206e+002 -1.337611e+003  0.000000e+000
      vertex -7.217789e+002  1.314928e+003  0.000000e+000
    endloop
  endfacet
  facet normal  0.000000e+000  0.000000e+000 -9.999999e-001
    outer loop
      vertex -7.217789e+002  1.314928e+003  0.000000e+000
      vertex -6.788206e+002 -1.337611e+003  0.000000e+000
      vertex -7.217789e+002 -1.314928e+003  0.000000e+000
    endloop
  endfacet
  facet normal  0.000000e+000  0.000000e+000 -1.000000e+000
    outer loop
      vertex -7.217789e+002  1.314928e+003  0.000000e+000
      vertex -7.217789e+002 -1.314928e+003  0.000000e+000
      vertex -7.639802e+002  1.290866e+003  0.000000e+000
    endloop
  endfacet
  facet normal  0.000000e+000  0.000000e+000 -1.000000e+000
    outer loop
      vertex -7.639802e+002  1.290866e+003  0.000000e+000
      vertex -7.217789e+002 -1.314928e+003  0.000000e+000
      vertex -7.639802e+002 -1.290866e+003  0.000000e+000
    endloop
  endfacet
  facet normal  0.000000e+000  0.000000e+000 -1.000000e+000
    outer loop
      vertex -7.639802e+002  1.290866e+003  0.000000e+000
      vertex -7.639802e+002 -1.290866e+003  0.000000e+000
      vertex -8.053802e+002  1.265450e+003  0.000000e+000
    endloop
  endfacet
  facet normal  0.000000e+000  0.000000e+000 -1.000000e+000
    outer loop
      vertex -8.053802e+002  1.265450e+003  0.000000e+000
      vertex -7.639802e+002 -1.290866e+003  0.000000e+000
      vertex -8.053802e+002 -1.265450e+003  0.000000e+000
    endloop
  endfacet
  facet normal  0.000000e+000  0.000000e+000 -1.000000e+000
    outer loop
      vertex -8.053802e+002  1.265450e+003  0.000000e+000
      vertex -8.053802e+002 -1.265450e+003  0.000000e+000
      vertex -8.459355e+002  1.238706e+003  0.000000e+000
    endloop
  endfacet
  facet normal  0.000000e+000  0.000000e+000 -1.000000e+000
    outer loop
      vertex -8.459355e+002  1.238706e+003  0.000000e+000
      vertex -8.053802e+002 -1.265450e+003  0.000000e+000
      vertex -8.459355e+002 -1.238706e+003  0.000000e+000
    endloop
  endfacet
  facet normal  0.000000e+000  0.000000e+000 -1.000000e+000
    outer loop
      vertex -8.459355e+002  1.238706e+003  0.000000e+000
      vertex -8.459355e+002 -1.238706e+003  0.000000e+000
      vertex -8.856036e+002  1.210664e+003  0.000000e+000
    endloop
  endfacet
  facet normal  0.000000e+000  0.000000e+000 -1.000000e+000
    outer loop
      vertex -8.856036e+002  1.210664e+003  0.000000e+000
      vertex -8.459355e+002 -1.238706e+003  0.000000e+000
      vertex -8.856036e+002 -1.210664e+003  0.000000e+000
    endloop
  endfacet
  facet normal  0.000000e+000  0.000000e+000 -1.000000e+000
    outer loop
      vertex -8.856036e+002  1.210664e+003  0.000000e+000
      vertex -8.856036e+002 -1.210664e+003  0.000000e+000
      vertex -9.243427e+002  1.181351e+003  0.000000e+000
    endloop
  endfacet
  facet normal  0.000000e+000  0.000000e+000 -1.000000e+000
    outer loop
      vertex -9.243427e+002  1.181351e+003  0.000000e+000
      vertex -8.856036e+002 -1.210664e+003  0.000000e+000
      vertex -9.243427e+002 -1.181351e+003  0.000000e+000
    endloop
  endfacet
  facet normal  0.000000e+000  0.000000e+000 -1.000000e+000
    outer loop
      vertex -9.243427e+002  1.181351e+003  0.000000e+000
      vertex -9.243427e+002 -1.181351e+003  0.000000e+000
      vertex -9.621123e+002  1.150800e+003  0.000000e+000
    endloop
  endfacet
  facet normal  0.000000e+000  0.000000e+000 -1.000000e+000
    outer loop
      vertex -9.621123e+002  1.150800e+003  0.000000e+000
      vertex -9.243427e+002 -1.181351e+003  0.000000e+000
      vertex -9.621123e+002 -1.150800e+003  0.000000e+000
    endloop
  endfacet
  facet normal  0.000000e+000  0.000000e+000 -9.999999e-001
    outer loop
      vertex -9.621123e+002  1.150800e+003  0.000000e+000
      vertex -9.621123e+002 -1.150800e+003  0.000000e+000
      vertex -9.988729e+002  1.119041e+003  0.000000e+000
    endloop
  endfacet
  facet normal  0.000000e+000  0.000000e+000 -1.000000e+000
    outer loop
      vertex -9.988729e+002  1.119041e+003  0.000000e+000
      vertex -9.621123e+002 -1.150800e+003  0.000000e+000
      vertex -9.988729e+002 -1.119041e+003  0.000000e+000
    endloop
  endfacet
  facet normal  0.000000e+000  0.000000e+000 -1.000000e+000
    outer loop
      vertex -9.988729e+002  1.119041e+003  0.000000e+000
      vertex -9.988729e+002 -1.119041e+003  0.000000e+000
      vertex -1.034586e+003  1.086109e+003  0.000000e+000
    endloop
  endfacet
  facet normal  0.000000e+000  0.000000e+000 -1.000000e+000
    outer loop
      vertex -1.034586e+003  1.086109e+003  0.000000e+000
      vertex -9.988729e+002 -1.119041e+003  0.000000e+000
      vertex -1.034586e+003 -1.086109e+003  0.000000e+000
    endloop
  endfacet
  facet normal  0.000000e+000  0.000000e+000 -1.000000e+000
    outer loop
      vertex -1.034586e+003  1.086109e+003  0.000000e+000
      vertex -1.034586e+003 -1.086109e+003  0.000000e+000
      vertex -1.069213e+003  1.052037e+003  0.000000e+000
    endloop
  endfacet
  facet normal  0.000000e+000  0.000000e+000 -1.000000e+000
    outer loop
      vertex -1.069213e+003  1.052037e+003  0.000000e+000
      vertex -1.034586e+003 -1.086109e+003  0.000000e+000
      vertex -1.069213e+003 -1.052037e+003  0.000000e+000
    endloop
  endfacet
  facet normal  0.000000e+000  0.000000e+000 -1.000000e+000
    outer loop
      vertex -1.069213e+003  1.052037e+003  0.000000e+000
      vertex -1.069213e+003 -1.052037e+003  0.000000e+000
      vertex -1.102720e+003  1.016863e+003  0.000000e+000
    endloop
  endfacet
  facet normal  0.000000e+000  0.000000e+000 -1.000000e+000
    outer loop
      vertex -1.102720e+003  1.016863e+003  0.000000e+000
      vertex -1.069213e+003 -1.052037e+003  0.000000e+000
      vertex -1.102720e+003 -1.016863e+003  0.000000e+000
    endloop
  endfacet
  facet normal  0.000000e+000  0.000000e+000 -1.000000e+000
    outer loop
      vertex -1.102720e+003  1.016863e+003  0.000000e+000
      vertex -1.102720e+003 -1.016863e+003  0.000000e+000
      vertex -1.135069e+003  9.806212e+002  0.000000e+000
    endloop
  endfacet
  facet normal  0.000000e+000  0.000000e+000 -9.999999e-001
    outer loop
      vertex -1.135069e+003  9.806212e+002  0.000000e+000
      vertex -1.102720e+003 -1.016863e+003  0.000000e+000
      vertex -1.135069e+003 -9.806212e+002  0.000000e+000
    endloop
  endfacet
  facet normal  0.000000e+000  0.000000e+000 -1.000000e+000
    outer loop
      vertex -1.135069e+003  9.806212e+002  0.000000e+000
      vertex -1.135069e+003 -9.806212e+002  0.000000e+000
      vertex -1.166228e+003  9.433512e+002  0.000000e+000
    endloop
  endfacet
  facet normal  0.000000e+000  0.000000e+000 -1.000000e+000
    outer loop
      vertex -1.166228e+003  9.433512e+002  0.000000e+000
      vertex -1.135069e+003 -9.806212e+002  0.000000e+000
      vertex -1.166228e+003 -9.433512e+002  0.000000e+000
    endloop
  endfacet
  facet normal  0.000000e+000  0.000000e+000 -9.999999e-001
    outer loop
      vertex -1.166228e+003  9.433512e+002  0.000000e+000
      vertex -1.166228e+003 -9.433512e+002  0.000000e+000
      vertex -1.196164e+003  9.050918e+002  0.000000e+000
    endloop
  endfacet
  facet normal  0.000000e+000  0.000000e+000 -1.000000e+000
    outer loop
      vertex -1.196164e+003  9.050918e+002  0.000000e+000
      vertex -1.166228e+003 -9.433512e+002  0.000000e+000
      vertex -1.196164e+003 -9.050918e+002  0.000000e+000
    endloop
  endfacet
  facet normal  0.000000e+000  0.000000e+000 -9.999999e-001
    outer loop
      vertex -1.196164e+003  9.050918e+002  0.000000e+000
      vertex -1.196164e+003 -9.050918e+002  0.000000e+000
      vertex -1.224845e+003  8.658831e+002  0.000000e+000
    endloop
  endfacet
  facet normal  0.000000e+000  0.000000e+000 -1.000000e+000
    outer loop
      vertex -1.224845e+003  8.658831e+002  0.000000e+000
      vertex -1.196164e+003 -9.050918e+002  0.000000e+000
      vertex -1.224845e+003 -8.658831e+002  0.000000e+000
    endloop
  endfacet
  facet normal  0.000000e+000  0.000000e+000 -1.000000e+000
    outer loop
      vertex -1.224845e+003  8.658831e+002  0.000000e+000
      vertex -1.224845e+003 -8.658831e+002  0.000000e+000
      vertex -1.252242e+003  8.257662e+002  0.000000e+000
    endloop
  endfacet
  facet normal  0.000000e+000  0.000000e+000 -1.000000e+000
    outer loop
      vertex -1.252242e+003  8.257662e+002  0.000000e+000
      vertex -1.224845e+003 -8.658831e+002  0.000000e+000
      vertex -1.252242e+003 -8.257662e+002  0.000000e+000
    endloop
  endfacet
  facet normal  0.000000e+000  0.000000e+000 -9.999999e-001
    outer loop
      vertex -1.252242e+003  8.257662e+002  0.000000e+000
      vertex -1.252242e+003 -8.257662e+002  0.000000e+000
      vertex -1.278325e+003  7.847831e+002  0.000000e+000
    endloop
  endfacet
  facet normal  0.000000e+000  0.000000e+000 -1.000000e+000
    outer loop
      vertex -1.278325e+003  7.847831e+002  0.000000e+000
      vertex -1.252242e+003 -8.257662e+002  0.000000e+000
      vertex -1.278325e+003 -7.847831e+002  0.000000e+000
    endloop
  endfacet
  facet normal  0.000000e+000  0.000000e+000 -1.000000e+000
    outer loop
      vertex -1.278325e+003  7.847831e+002  0.000000e+000
      vertex -1.278325e+003 -7.847831e+002  0.000000e+000
      vertex -1.303068e+003  7.429770e+002  0.000000e+000
    endloop
  endfacet
  facet normal  0.000000e+000  0.000000e+000 -1.000000e+000
    outer loop
      vertex -1.303068e+003  7.429770e+002  0.000000e+000
      vertex -1.278325e+003 -7.847831e+002  0.000000e+000
      vertex -1.303068e+003 -7.429770e+002  0.000000e+000
    endloop
  endfacet
  facet normal  0.000000e+000  0.000000e+000 -1.000000e+000
    outer loop
      vertex -1.303068e+003  7.429770e+002  0.000000e+000
      vertex -1.303068e+003 -7.429770e+002  0.000000e+000
      vertex -1.326443e+003  7.003915e+002  0.000000e+000
    endloop
  endfacet
  facet normal  0.000000e+000  0.000000e+000 -9.999999e-001
    outer loop
      vertex -1.326443e+003  7.003915e+002  0.000000e+000
      vertex -1.303068e+003 -7.429770e+002  0.000000e+000
      vertex -1.326443e+003 -7.003915e+002  0.000000e+000
    endloop
  endfacet
  facet normal  0.000000e+000  0.000000e+000 -1.000000e+000
    outer loop
      vertex -1.326443e+003  7.003915e+002  0.000000e+000
      vertex -1.326443e+003 -7.003915e+002  0.000000e+000
      vertex -1.348428e+003  6.570715e+002  0.000000e+000
    endloop
  endfacet
  facet normal  0.000000e+000  0.000000e+000 -1.000000e+000
    outer loop
      vertex -1.348428e+003  6.570715e+002  0.000000e+000
      vertex -1.326443e+003 -7.003915e+002  0.000000e+000
      vertex -1.348428e+003 -6.570715e+002  0.000000e+000
    endloop
  endfacet
  facet normal  0.000000e+000  0.000000e+000 -9.999999e-001
    outer loop
      vertex -1.348428e+003  6.570715e+002  0.000000e+000
      vertex -1.348428e+003 -6.570715e+002  0.000000e+000
      vertex -1.368998e+003  6.130623e+002  0.000000e+000
    endloop
  endfacet
  facet normal  0.000000e+000  0.000000e+000 -9.999999e-001
    outer loop
      vertex -1.368998e+003  6.130623e+002  0.000000e+000
      vertex -1.348428e+003 -6.570715e+002  0.000000e+000
      vertex -1.368998e+003 -6.130623e+002  0.000000e+000
    endloop
  endfacet
  facet normal  0.000000e+000  0.000000e+000 -1.000000e+000
    outer loop
      vertex -1.368998e+003  6.130623e+002  0.000000e+000
      vertex -1.368998e+003 -6.130623e+002  0.000000e+000
      vertex -1.388132e+003  5.684100e+002  0.000000e+000
    endloop
  endfacet
  facet normal  0.000000e+000  0.000000e+000 -1.000000e+000
    outer loop
      vertex -1.388132e+003  5.684100e+002  0.000000e+000
      vertex -1.368998e+003 -6.130623e+002  0.000000e+000
      vertex -1.388132e+003 -5.684100e+002  0.000000e+000
    endloop
  endfacet
  facet normal  0.000000e+000  0.000000e+000 -1.000000e+000
    outer loop
      vertex -1.388132e+003  5.684100e+002  0.000000e+000
      vertex -1.388132e+003 -5.684100e+002  0.000000e+000
      vertex -1.405810e+003  5.231616e+002  0.000000e+000
    endloop
  endfacet
  facet normal  0.000000e+000  0.000000e+000 -1.000000e+000
    outer loop
      vertex -1.405810e+003  5.231616e+002  0.000000e+000
      vertex -1.388132e+003 -5.684100e+002  0.000000e+000
      vertex -1.405810e+003 -5.231616e+002  0.000000e+000
    endloop
  endfacet
  facet normal  0.000000e+000  0.000000e+000 -1.000000e+000
    outer loop
      vertex -1.405810e+003  5.231616e+002  0.000000e+000
      vertex -1.405810e+003 -5.231616e+002  0.000000e+000
      vertex -1.422014e+003  4.773645e+002  0.000000e+000
    endloop
  endfacet
  facet normal  0.000000e+000  0.000000e+000 -1.000000e+000
    outer loop
      vertex -1.422014e+003  4.773645e+002  0.000000e+000
      vertex -1.405810e+003 -5.231616e+002  0.000000e+000
      vertex -1.422014e+003 -4.773645e+002  0.000000e+000
    endloop
  endfacet
  facet normal  0.000000e+000  0.000000e+000 -1.000000e+000
    outer loop
      vertex -1.422014e+003  4.773645e+002  0.000000e+000
      vertex -1.422014e+003 -4.773645e+002  0.000000e+000
      vertex -1.436726e+003  4.310666e+002  0.000000e+000
    endloop
  endfacet
  facet normal  0.000000e+000  0.000000e+000 -1.000000e+000
    outer loop
      vertex -1.436726e+003  4.310666e+002  0.000000e+000
      vertex -1.422014e+003 -4.773645e+002  0.000000e+000
      vertex -1.436726e+003 -4.310666e+002  0.000000e+000
    endloop
  endfacet
  facet normal  0.000000e+000  0.000000e+000 -1.000000e+000
    outer loop
      vertex -1.436726e+003  4.310666e+002  0.000000e+000
      vertex -1.436726e+003 -4.310666e+002  0.000000e+000
      vertex -1.449931e+003  3.843167e+002  0.000000e+000
    endloop
  endfacet
  facet normal  0.000000e+000  0.000000e+000 -1.000000e+000
    outer loop
      vertex -1.449931e+003  3.843167e+002  0.000000e+000
      vertex -1.436726e+003 -4.310666e+002  0.000000e+000
      vertex -1.449931e+003 -3.843167e+002  0.000000e+000
    endloop
  endfacet
  facet normal  0.000000e+000  0.000000e+000 -1.000000e+000
    outer loop
      vertex -1.449931e+003  3.843167e+002  0.000000e+000
      vertex -1.449931e+003 -3.843167e+002  0.000000e+000
      vertex -1.461616e+003  3.371636e+002  0.000000e+000
    endloop
  endfacet
  facet normal  0.000000e+000  0.000000e+000 -1.000000e+000
    outer loop
      vertex -1.461616e+003  3.371636e+002  0.000000e+000
      vertex -1.449931e+003 -3.843167e+002  0.000000e+000
      vertex -1.461616e+003 -3.371636e+002  0.000000e+000
    endloop
  endfacet
  facet normal  0.000000e+000  0.000000e+000 -1.000000e+000
    outer loop
      vertex -1.461616e+003  3.371636e+002  0.000000e+000
      vertex -1.461616e+003 -3.371636e+002  0.000000e+000
      vertex -1.471767e+003  2.896569e+002  0.000000e+000
    endloop
  endfacet
  facet normal  0.000000e+000  0.000000e+000 -1.000000e+000
    outer loop
      vertex -1.471767e+003  2.896569e+002  0.000000e+000
      vertex -1.461616e+003 -3.371636e+002  0.000000e+000
      vertex -1.471767e+003 -2.896569e+002  0.000000e+000
    endloop
  endfacet
  facet normal  0.000000e+000  0.000000e+000 -1.000000e+000
    outer loop
      vertex -1.471767e+003  2.896569e+002  0.000000e+000
      vertex -1.471767e+003 -2.896569e+002  0.000000e+000
      vertex -1.480375e+003  2.418464e+002  0.000000e+000
    endloop
  endfacet
  facet normal  0.000000e+000  0.000000e+000 -1.000000e+000
    outer loop
      vertex -1.480375e+003  2.418464e+002  0.000000e+000
      vertex -1.471767e+003 -2.896569e+002  0.000000e+000
      vertex -1.480375e+003 -2.418464e+002  0.000000e+000
    endloop
  endfacet
  facet normal  0.000000e+000  0.000000e+000 -1.000000e+000
    outer loop
      vertex -1.480375e+003  2.418464e+002  0.000000e+000
      vertex -1.480375e+003 -2.418464e+002  0.000000e+000
      vertex -1.487430e+003  1.937822e+002  0.000000e+000
    endloop
  endfacet
  facet normal  0.000000e+000  0.000000e+000 -1.000000e+000
    outer loop
      vertex -1.487430e+003  1.937822e+002  0.000000e+000
      vertex -1.480375e+003 -2.418464e+002  0.000000e+000
      vertex -1.487430e+003 -1.937822e+002  0.000000e+000
    endloop
  endfacet
  facet normal  0.000000e+000  0.000000e+000 -1.000000e+000
    outer loop
      vertex -1.487430e+003  1.937822e+002  0.000000e+000
      vertex -1.487430e+003 -1.937822e+002  0.000000e+000
      vertex -1.492925e+003  1.455148e+002  0.000000e+000
    endloop
  endfacet
  facet normal  0.000000e+000  0.000000e+000 -1.000000e+000
    outer loop
      vertex -1.492925e+003  1.455148e+002  0.000000e+000
      vertex -1.487430e+003 -1.937822e+002  0.000000e+000
      vertex -1.492925e+003 -1.455148e+002  0.000000e+000
    endloop
  endfacet
  facet normal  0.000000e+000  0.000000e+000 -1.000000e+000
    outer loop
      vertex -1.492925e+003  1.455148e+002  0.000000e+000
      vertex -1.492925e+003 -1.455148e+002  0.000000e+000
      vertex -1.496854e+003  9.709473e+001  0.000000e+000
    endloop
  endfacet
  facet normal  0.000000e+000  0.000000e+000 -1.000000e+000
    outer loop
      vertex -1.496854e+003  9.709473e+001  0.000000e+000
      vertex -1.492925e+003 -1.455148e+002  0.000000e+000
      vertex -1.496854e+003 -9.709473e+001  0.000000e+000
    endloop
  endfacet
  facet normal  0.000000e+000  0.000000e+000 -1.000000e+000
    outer loop
      vertex -1.496854e+003  9.709473e+001  0.000000e+000
      vertex -1.496854e+003 -9.709473e+001  0.000000e+000
      vertex -1.499213e+003  4.857284e+001  0.000000e+000
    endloop
  endfacet
  facet normal  0.000000e+000  0.000000e+000 -9.999999e-001
    outer loop
      vertex -1.499213e+003  4.857284e+001  0.000000e+000
      vertex -1.496854e+003 -9.709473e+001  0.000000e+000
      vertex -1.499213e+003 -4.857284e+001  0.000000e+000
    endloop
  endfacet
  facet normal  0.000000e+000  0.000000e+000 -1.000000e+000
    outer loop
      vertex -1.499213e+003  4.857284e+001  0.000000e+000
      vertex -1.499213e+003 -4.857284e+001  0.000000e+000
      vertex -1.500000e+003  9.184548e-014  0.000000e+000
    endloop
  endfacet
endsolid CATIA STL
