solid CATIA STL
  facet normal  0.000000e+000 -1.000000e+000  0.000000e+000
    outer loop
      vertex  0.000000e+000  0.000000e+000  1.000000e+002
      vertex  0.000000e+000  0.000000e+000  0.000000e+000
      vertex  3.000000e+002  0.000000e+000  1.000000e+002
    endloop
  endfacet
  facet normal  0.000000e+000 -1.000000e+000  -0.000000e+000
    outer loop
      vertex  3.000000e+002  0.000000e+000  1.000000e+002
      vertex  0.000000e+000  0.000000e+000  0.000000e+000
      vertex  3.000000e+002  0.000000e+000  0.000000e+000
    endloop
  endfacet
  facet normal  0.000000e+000  1.000000e+000  0.000000e+000
    outer loop
      vertex  3.000000e+002  2.500000e+002  9.900000e+001
      vertex  5.684342e-014  2.500000e+002  9.900000e+001
      vertex  3.000000e+002  2.500000e+002  1.000000e+002
    endloop
  endfacet
  facet normal  0.000000e+000  1.000000e+000  0.000000e+000
    outer loop
      vertex  3.000000e+002  2.500000e+002  1.000000e+002
      vertex  5.684342e-014  2.500000e+002  9.900000e+001
      vertex  5.684342e-014  2.500000e+002  1.000000e+002
    endloop
  endfacet
  facet normal  1.000000e+000  0.000000e+000  0.000000e+000
    outer loop
      vertex  3.000000e+002  2.500000e+002  9.900000e+001
      vertex  3.000000e+002  2.500000e+002  1.000000e+002
      vertex  3.000000e+002  1.000000e+002  9.900000e+001
    endloop
  endfacet
  facet normal  1.000000e+000  0.000000e+000  -0.000000e+000
    outer loop
      vertex  3.000000e+002  1.000000e+002  9.900000e+001
      vertex  3.000000e+002  2.500000e+002  1.000000e+002
      vertex  3.000000e+002  0.000000e+000  1.000000e+002
    endloop
  endfacet
  facet normal  1.000000e+000  0.000000e+000  0.000000e+000
    outer loop
      vertex  3.000000e+002  1.000000e+002  9.900000e+001
      vertex  3.000000e+002  0.000000e+000  1.000000e+002
      vertex  3.000000e+002  1.000000e+002  0.000000e+000
    endloop
  endfacet
  facet normal  1.000000e+000  0.000000e+000  0.000000e+000
    outer loop
      vertex  3.000000e+002  1.000000e+002  0.000000e+000
      vertex  3.000000e+002  0.000000e+000  1.000000e+002
      vertex  3.000000e+002  0.000000e+000  0.000000e+000
    endloop
  endfacet
  facet normal -1.000000e+000 -5.684342e-016  0.000000e+000
    outer loop
      vertex -5.684342e-014  1.000000e+002  9.900000e+001
      vertex -5.684342e-014  1.000000e+002  0.000000e+000
      vertex  0.000000e+000  0.000000e+000  0.000000e+000
    endloop
  endfacet
  facet normal -1.000000e+000 -5.684342e-016  0.000000e+000
    outer loop
      vertex -5.684342e-014  1.000000e+002  9.900000e+001
      vertex  0.000000e+000  0.000000e+000  0.000000e+000
      vertex  0.000000e+000  0.000000e+000  1.000000e+002
    endloop
  endfacet
  facet normal -1.000000e+000  2.273737e-016  7.958079e-014
    outer loop
      vertex -5.684342e-014  1.000000e+002  9.900000e+001
      vertex  0.000000e+000  0.000000e+000  1.000000e+002
      vertex  5.684342e-014  2.500000e+002  1.000000e+002
    endloop
  endfacet
  facet normal -1.000000e+000  7.579123e-016  0.000000e+000
    outer loop
      vertex -5.684342e-014  1.000000e+002  9.900000e+001
      vertex  5.684342e-014  2.500000e+002  1.000000e+002
      vertex  5.684342e-014  2.500000e+002  9.900000e+001
    endloop
  endfacet
  facet normal  0.000000e+000  0.000000e+000  1.000000e+000
    outer loop
      vertex  0.000000e+000  0.000000e+000  1.000000e+002
      vertex  3.000000e+002  0.000000e+000  1.000000e+002
      vertex  5.684342e-014  2.500000e+002  1.000000e+002
    endloop
  endfacet
  facet normal  -0.000000e+000  0.000000e+000  1.000000e+000
    outer loop
      vertex  5.684342e-014  2.500000e+002  1.000000e+002
      vertex  3.000000e+002  0.000000e+000  1.000000e+002
      vertex  3.000000e+002  2.500000e+002  1.000000e+002
    endloop
  endfacet
  facet normal  0.000000e+000  -0.000000e+000 -1.000000e+000
    outer loop
      vertex -5.684342e-014  1.000000e+002  9.900000e+001
      vertex  5.684342e-014  2.500000e+002  9.900000e+001
      vertex  3.000000e+002  1.000000e+002  9.900000e+001
    endloop
  endfacet
  facet normal  0.000000e+000  0.000000e+000 -1.000000e+000
    outer loop
      vertex  3.000000e+002  1.000000e+002  9.900000e+001
      vertex  5.684342e-014  2.500000e+002  9.900000e+001
      vertex  3.000000e+002  2.500000e+002  9.900000e+001
    endloop
  endfacet
  facet normal  0.000000e+000  9.999999e-001  -0.000000e+000
    outer loop
      vertex  3.000000e+002  1.000000e+002  9.900000e+001
      vertex  3.000000e+002  1.000000e+002  0.000000e+000
      vertex -5.684342e-014  1.000000e+002  9.900000e+001
    endloop
  endfacet
  facet normal  0.000000e+000  9.999999e-001  0.000000e+000
    outer loop
      vertex -5.684342e-014  1.000000e+002  9.900000e+001
      vertex  3.000000e+002  1.000000e+002  0.000000e+000
      vertex -5.684342e-014  1.000000e+002  0.000000e+000
    endloop
  endfacet
  facet normal  0.000000e+000  0.000000e+000 -1.000000e+000
    outer loop
      vertex  0.000000e+000  0.000000e+000  0.000000e+000
      vertex -5.684342e-014  1.000000e+002  0.000000e+000
      vertex  3.000000e+002  0.000000e+000  0.000000e+000
    endloop
  endfacet
  facet normal  0.000000e+000  0.000000e+000 -1.000000e+000
    outer loop
      vertex  3.000000e+002  0.000000e+000  0.000000e+000
      vertex -5.684342e-014  1.000000e+002  0.000000e+000
      vertex  3.000000e+002  1.000000e+002  0.000000e+000
    endloop
  endfacet
endsolid CATIA STL
